<?xml version="1.0" encoding="utf-8"?>
<!-- Generator: Adobe Illustrator 22.0.1, SVG Export Plug-In . SVG Version: 6.00 Build 0)  -->
<svg version="1.1" id="Layer_1" xmlns="http://www.w3.org/2000/svg" xmlns:xlink="http://www.w3.org/1999/xlink" x="0px" y="0px"
	 viewBox="0 0 288 188.7" style="enable-background:new 0 0 288 188.7;" xml:space="preserve">
<style type="text/css">
	.st0{fill:#FFFFFF;}
</style>
<g>
	<path class="st0" d="M102,106.8c1.4,1.9,3.3,3.4,5.5,4.5c2.2,1.2,4.8,1.7,7.8,1.7c3,0,5.7-0.6,7.9-1.8c2.2-1.2,4.1-2.7,5.5-4.6
		c1.4-1.9,2.4-4.1,3.1-6.5c0.7-2.4,1-4.9,1-7.5c0-2.6-0.4-5.1-1.1-7.5c-0.7-2.4-1.8-4.5-3.3-6.4c-1.5-1.8-3.3-3.3-5.5-4.4
		c-2.2-1.1-4.8-1.7-7.7-1.7c-3,0-5.6,0.6-7.8,1.7c-2.2,1.2-4,2.7-5.5,4.6c-1.4,1.9-2.5,4.1-3.2,6.5c-0.7,2.4-1,4.9-1,7.4
		c0,2.6,0.4,5.1,1.1,7.5C99.5,102.8,100.5,104.9,102,106.8z"/>
	<polygon class="st0" points="264.7,42.4 264.7,144.3 264.7,144.3 264.7,165.8 227.7,165.8 205.4,165.8 22.9,165.8 22.9,152.2 
		22.9,144.3 22.9,20.9 60.5,20.9 77.1,20.9 283.9,20.9 283.9,1.8 5.1,1.8 5.1,187 283.9,187 283.9,42.4 	"/>
	<path class="st0" d="M45.3,83.4v60.9h197.1V42.4H77.1H60.5H45.3v22.8h27l-7.8,18.2H45.3z M163.2,54.4h35.2c3.7,0,7.2,0.8,10.4,2.3
		c3.2,1.6,5.9,3.6,8.2,6.1s4.1,5.3,5.4,8.5c1.3,3.2,1.9,6.4,1.9,9.7c0,4.5-1,8.6-2.9,12.5c-1.9,3.9-4.6,7-8.1,9.5l16.2,28.2h-23.8
		l-13.5-23.6h-7.9v23.6h-21.1V54.4z M79.2,78.1c1.9-4.7,4.7-8.8,8.2-12.4c3.5-3.6,7.6-6.4,12.4-8.5c4.8-2.1,10-3.2,15.7-3.2
		c5.8,0,11.1,1.1,15.9,3.4c4.8,2.2,8.8,5.2,12.2,8.9c3.4,3.7,6,7.9,7.8,12.5c1.8,4.7,2.8,9.5,2.8,14.4c0,5-1,9.9-2.9,14.5
		c-1.9,4.6-4.6,8.8-8.1,12.3c-3.5,3.6-7.6,6.4-12.4,8.6c-4.8,2.2-10,3.2-15.7,3.2c-5.8,0-11.1-1.1-15.9-3.4
		c-4.8-2.2-8.8-5.2-12.2-8.8c-3.4-3.6-6-7.8-7.9-12.5c-1.9-4.7-2.8-9.5-2.8-14.5C76.3,87.6,77.2,82.7,79.2,78.1z"/>
	<path class="st0" d="M201.2,87c1.1-1.4,1.7-3.5,1.7-6.1c0-2.7-0.6-4.7-1.9-6.1c-1.3-1.4-2.6-2.1-3.9-2.1h-12.8v16.4h13.3
		C198.9,89.2,200.1,88.5,201.2,87z"/>
</g>
</svg>
